<svg width="208" height="142" viewBox="0 0 208 142" fill="none" xmlns="http://www.w3.org/2000/svg">
<path d="M101.175 3.28996H67.0952V21.38C75.3152 14.51 86.8852 8.11995 100.425 3.53995C100.675 3.44995 100.925 3.36996 101.175 3.28996Z" fill="white"/>
<path d="M116.235 10.54C120.795 7.69995 125.375 5.19995 129.905 3.02995C131.325 2.33995 132.745 1.67995 134.165 1.06995C134.735 0.819954 135.315 0.579954 135.885 0.339954C135.985 0.319954 136.085 0.299954 136.195 0.279954C136.135 0.279954 136.075 0.279954 136.025 0.279954C136.245 0.189954 136.465 0.0899541 136.685 -4.57764e-05C136.265 0.0999541 135.835 0.199954 135.405 0.299954C129.745 0.429954 123.585 1.16995 117.145 2.54995C111.735 3.69995 106.135 5.30995 100.495 7.35995C73.2953 17.29 54.3853 34.42 55.0153 47.58C55.0853 48.99 55.3753 50.37 55.9053 51.68C56.9753 54.31 58.9453 56.5 61.6353 58.24C56.5353 45.05 74.5553 24 102.785 10.7C111.345 6.66995 119.835 3.83995 127.705 2.18995C129.295 1.77995 130.865 1.40995 132.425 1.06995C131.715 1.26995 130.995 1.46995 130.275 1.68995C121.675 4.28995 112.435 8.44995 103.385 14.08C76.6253 30.71 61.6053 53.84 69.5453 65.99C69.6153 66.09 69.6653 66.2 69.7353 66.3C75.4653 74.53 90.6453 75.36 108.275 69.73C97.7053 72.01 88.7353 71.74 83.0353 68.63C81.4253 67.75 80.0953 66.64 79.0353 65.31C78.9053 65.14 78.7453 64.97 78.6153 64.79C78.2153 64.21 77.8953 63.6 77.6053 62.97C82.2053 63.39 87.3253 63.32 92.7853 62.74C86.7153 62.81 81.3253 62.18 76.8853 60.89C73.8253 48.13 90.0653 26.81 116.235 10.54Z" fill="white"/>
<path d="M106.265 78.77H140.345V60.68C132.125 67.56 120.565 73.94 107.015 78.53C106.765 78.61 106.515 78.69 106.265 78.77Z" fill="white"/>
<path d="M91.2051 71.52C86.6451 74.35 82.0551 76.86 77.5351 79.03C76.1051 79.72 74.6852 80.38 73.2751 80.99C72.7051 81.24 72.1251 81.48 71.5551 81.72C71.4551 81.74 71.3551 81.76 71.2551 81.78C71.3051 81.78 71.3651 81.77 71.4251 81.77C71.2051 81.86 70.9851 81.96 70.7651 82.05C71.1851 81.96 71.6251 81.86 72.0451 81.75C77.7051 81.62 83.8651 80.8799 90.3051 79.5C95.7151 78.3499 101.305 76.75 106.955 74.69C134.155 64.76 153.065 47.62 152.435 34.47C152.365 33.05 152.075 31.68 151.545 30.37C150.475 27.74 148.505 25.55 145.815 23.81C150.905 37 132.895 58.05 104.665 71.35C96.1051 75.38 87.6151 78.21 79.7451 79.87C78.1551 80.28 76.5851 80.65 75.0251 80.99C75.7351 80.79 76.4551 80.58 77.1851 80.36C85.7851 77.76 95.0251 73.6 104.075 67.98C130.835 51.33 145.855 28.2 137.905 16.05C137.835 15.95 137.785 15.84 137.715 15.74C131.985 7.50997 116.805 6.67997 99.1751 12.31C109.745 10.03 118.715 10.31 124.415 13.41C126.025 14.29 127.355 15.4 128.405 16.73C128.545 16.9 128.695 17.07 128.825 17.25C129.225 17.83 129.555 18.44 129.835 19.07C125.235 18.65 120.115 18.72 114.665 19.3C120.735 19.24 126.125 19.86 130.565 21.15C133.615 33.93 117.375 55.25 91.2051 71.52Z" fill="white"/>
<path d="M14.8492 122.175H2.99533V99.3273H5.67201V119.753H14.8492V122.175ZM26.4481 122.557C23.2085 122.557 20.6115 121.49 18.6571 119.355C16.7133 117.22 15.7414 114.442 15.7414 111.022C15.7414 107.347 16.7346 104.415 18.7208 102.227C20.7071 100.039 23.4103 98.9449 26.8305 98.9449C29.9852 98.9449 32.5238 100.007 34.4463 102.131C36.3795 104.256 37.3461 107.033 37.3461 110.464C37.3461 114.192 36.3582 117.14 34.3826 119.307C32.4069 121.474 29.7621 122.557 26.4481 122.557ZM26.6393 101.367C24.2388 101.367 22.2897 102.232 20.7921 103.964C19.2944 105.695 18.5456 107.968 18.5456 110.783C18.5456 113.598 19.2732 115.865 20.7283 117.586C22.1941 119.296 24.1007 120.151 26.4481 120.151C28.9549 120.151 30.9305 119.333 32.3751 117.698C33.8196 116.062 34.5419 113.773 34.5419 110.831C34.5419 107.814 33.8409 105.483 32.4388 103.836C31.0367 102.19 29.1036 101.367 26.6393 101.367ZM58.9188 120.613C56.6245 121.909 54.0753 122.557 51.2712 122.557C48.0103 122.557 45.3708 121.505 43.3527 119.402C41.3451 117.299 40.3414 114.516 40.3414 111.054C40.3414 107.517 41.4567 104.617 43.6872 102.354C45.9284 100.081 48.7644 98.9449 52.1953 98.9449C54.6807 98.9449 56.7679 99.3485 58.4568 100.156V103.119C56.6086 101.951 54.4205 101.367 51.8925 101.367C49.3327 101.367 47.2349 102.248 45.5992 104.011C43.9634 105.775 43.1455 108.058 43.1455 110.862C43.1455 113.752 43.905 116.025 45.4239 117.682C46.9428 119.328 49.0034 120.151 51.6058 120.151C53.3902 120.151 54.9357 119.795 56.2421 119.084V112.679H51.2393V110.257H58.9188V120.613ZM73.4494 122.557C70.2097 122.557 67.6127 121.49 65.6583 119.355C63.7145 117.22 62.7426 114.442 62.7426 111.022C62.7426 107.347 63.7358 104.415 65.722 102.227C67.7083 100.039 70.4115 98.9449 73.8318 98.9449C76.9864 98.9449 79.525 100.007 81.4475 102.131C83.3807 104.256 84.3473 107.033 84.3473 110.464C84.3473 114.192 83.3595 117.14 81.3838 119.307C79.4082 121.474 76.7634 122.557 73.4494 122.557ZM73.6406 101.367C71.24 101.367 69.291 102.232 67.7933 103.964C66.2956 105.695 65.5468 107.968 65.5468 110.783C65.5468 113.598 66.2744 115.865 67.7296 117.586C69.1954 119.296 71.102 120.151 73.4494 120.151C75.9561 120.151 77.9317 119.333 79.3763 117.698C80.8209 116.062 81.5431 113.773 81.5431 110.831C81.5431 107.814 80.8421 105.483 79.44 103.836C78.038 102.19 76.1048 101.367 73.6406 101.367ZM97.7944 122.175V99.3273H104.104C112.155 99.3273 116.181 103.04 116.181 110.464C116.181 113.991 115.06 116.827 112.819 118.972C110.588 121.107 107.598 122.175 103.849 122.175H97.7944ZM100.471 101.749V119.753H103.881C106.876 119.753 109.207 118.951 110.875 117.347C112.543 115.743 113.377 113.47 113.377 110.528C113.377 104.675 110.264 101.749 104.04 101.749H100.471ZM132.782 122.175H120.674V99.3273H132.273V101.749H123.35V109.349H131.603V111.755H123.35V119.753H132.782V122.175ZM136.112 121.251V118.096C136.473 118.415 136.904 118.701 137.403 118.956C137.913 119.211 138.444 119.429 138.996 119.61C139.559 119.779 140.122 119.912 140.685 120.008C141.248 120.103 141.768 120.151 142.246 120.151C143.893 120.151 145.12 119.848 145.927 119.243C146.745 118.627 147.154 117.745 147.154 116.598C147.154 115.982 147.016 115.446 146.739 114.989C146.474 114.532 146.102 114.118 145.624 113.746C145.146 113.364 144.578 113.003 143.919 112.663C143.271 112.312 142.57 111.946 141.816 111.564C141.02 111.16 140.276 110.751 139.586 110.337C138.895 109.922 138.295 109.466 137.785 108.967C137.275 108.467 136.872 107.904 136.574 107.278C136.288 106.64 136.144 105.897 136.144 105.047C136.144 104.006 136.373 103.103 136.829 102.339C137.286 101.563 137.886 100.926 138.63 100.427C139.373 99.9274 140.218 99.5556 141.163 99.3113C142.119 99.067 143.091 98.9449 144.079 98.9449C146.33 98.9449 147.972 99.2157 149.002 99.7575V102.769C147.653 101.834 145.922 101.367 143.808 101.367C143.224 101.367 142.639 101.43 142.055 101.558C141.471 101.675 140.951 101.871 140.494 102.147C140.037 102.424 139.665 102.779 139.379 103.215C139.092 103.65 138.948 104.181 138.948 104.808C138.948 105.392 139.055 105.897 139.267 106.322C139.49 106.747 139.814 107.134 140.239 107.485C140.664 107.835 141.179 108.175 141.784 108.504C142.4 108.834 143.107 109.195 143.903 109.588C144.721 109.992 145.497 110.416 146.23 110.862C146.962 111.309 147.605 111.803 148.157 112.344C148.71 112.886 149.145 113.486 149.464 114.145C149.793 114.803 149.958 115.557 149.958 116.407C149.958 117.533 149.735 118.489 149.289 119.275C148.853 120.05 148.258 120.682 147.504 121.171C146.761 121.659 145.9 122.01 144.923 122.222C143.946 122.446 142.916 122.557 141.832 122.557C141.471 122.557 141.025 122.525 140.494 122.461C139.963 122.408 139.421 122.323 138.869 122.207C138.316 122.1 137.791 121.968 137.291 121.808C136.803 121.638 136.41 121.452 136.112 121.251ZM157.191 122.175H154.515V99.3273H157.191V122.175ZM180.293 120.613C177.999 121.909 175.45 122.557 172.646 122.557C169.385 122.557 166.745 121.505 164.727 119.402C162.72 117.299 161.716 114.516 161.716 111.054C161.716 107.517 162.831 104.617 165.062 102.354C167.303 100.081 170.139 98.9449 173.57 98.9449C176.055 98.9449 178.143 99.3485 179.831 100.156V103.119C177.983 101.951 175.795 101.367 173.267 101.367C170.707 101.367 168.61 102.248 166.974 104.011C165.338 105.775 164.52 108.058 164.52 110.862C164.52 113.752 165.28 116.025 166.799 117.682C168.317 119.328 170.378 120.151 172.98 120.151C174.765 120.151 176.31 119.795 177.617 119.084V112.679H172.614V110.257H180.293V120.613ZM204.033 122.175H200.751L188.993 103.964C188.695 103.507 188.451 103.029 188.26 102.53H188.164C188.249 103.018 188.292 104.065 188.292 105.668V122.175H185.615V99.3273H189.088L200.528 117.251C201.006 117.995 201.314 118.505 201.452 118.781H201.516C201.41 118.122 201.356 117.002 201.356 115.419V99.3273H204.033V122.175Z" fill="white"/>
<path d="M39.03 134.18C38.77 134.7 38.41 135.13 37.96 135.47C37.51 135.82 36.99 136.08 36.39 136.25C35.79 136.42 35.16 136.51 34.48 136.51H31.42V140.95H30V128.37H34.71C35.42 128.37 36.06 128.46 36.64 128.65C37.22 128.84 37.72 129.1 38.13 129.44C38.54 129.78 38.86 130.2 39.08 130.7C39.3 131.2 39.41 131.76 39.41 132.38C39.43 133.06 39.29 133.66 39.03 134.18ZM37.08 130.37C36.46 129.91 35.64 129.68 34.62 129.68H31.43V135.22H34.55C35.07 135.22 35.54 135.15 35.96 135.02C36.39 134.89 36.75 134.7 37.06 134.45C37.37 134.2 37.6 133.91 37.76 133.57C37.92 133.23 38 132.85 38 132.43C38.01 131.52 37.7 130.84 37.08 130.37Z" fill="white"/>
<path d="M49.9199 128.37H51.3399V139.64H58.4199V140.95H49.9199V128.37Z" fill="white"/>
<path d="M80.6799 140.95H79.1499L77.6799 137.62H70.8299L69.3399 140.95H67.8799L73.6099 128.28H74.9399L80.6799 140.95ZM74.2599 129.95L71.3799 136.37H77.1099L74.2599 129.95Z" fill="white"/>
<path d="M94.2001 140.95H92.7801V129.68H88.5601V128.37H98.4301V129.68H94.2101V140.95H94.2001Z" fill="white"/>
<path d="M110.56 128.37V140.95H109.14V128.37H110.56Z" fill="white"/>
<path d="M131.41 128.37H132.79V140.95H131.66L123.53 130.63V140.95H122.15V128.37H123.48L131.41 138.46L131.41 128.37Z" fill="white"/>
<path d="M154.55 135.58C154.55 136.5 154.42 137.31 154.17 138.01C153.92 138.71 153.56 139.29 153.1 139.75C152.64 140.22 152.09 140.57 151.45 140.8C150.81 141.03 150.09 141.15 149.3 141.15C148.52 141.15 147.81 141.03 147.17 140.8C146.53 140.57 145.98 140.22 145.52 139.76C145.06 139.3 144.7 138.73 144.45 138.04C144.2 137.36 144.07 136.57 144.07 135.69V128.37H145.49V135.6C145.49 136.97 145.83 138.01 146.51 138.75C147.19 139.48 148.13 139.85 149.34 139.85C150.5 139.85 151.43 139.5 152.11 138.81C152.79 138.12 153.13 137.08 153.13 135.7V128.38H154.55V135.58Z" fill="white"/>
<path d="M171.86 137.5H171.79L167.21 130.78V140.95H165.83V128.37H167.27L171.85 135.24L176.43 128.37H177.87V140.95H176.45V130.76L171.86 137.5Z" fill="white"/>
</svg>
